<svg width="34" height="38" viewBox="0 0 34 38" fill="none" xmlns="http://www.w3.org/2000/svg">
<path d="M28.0897 20.0817C28.0708 16.9669 29.5296 14.6194 32.4755 12.8884C30.8279 10.6049 28.3352 9.34892 25.0494 9.10686C21.9382 8.86937 18.5343 10.8606 17.288 10.8606C15.9708 10.8606 12.9588 9.18907 10.5888 9.18907C5.69785 9.26214 0.5 12.9615 0.5 20.4881C0.5 22.7123 0.920172 25.0096 1.76051 27.3754C2.88412 30.4902 6.93476 38.1218 11.1601 37.9985C13.3695 37.9483 14.9322 36.4822 17.8073 36.4822C20.5974 36.4822 22.0421 37.9985 24.5064 37.9985C28.7695 37.9391 32.433 31.0017 33.5 27.8778C27.7828 25.2699 28.0897 20.2415 28.0897 20.0817ZM23.1279 6.15192C25.5215 3.40251 25.3043 0.899725 25.2335 0C23.1185 0.118745 20.673 1.39297 19.2803 2.9595C17.7459 4.6402 16.8442 6.71825 17.0378 9.06118C19.3227 9.23017 21.4094 8.09295 23.1279 6.15192Z" fill="white"/>
</svg>
