<svg width="30" height="28" viewBox="0 0 30 28" fill="none" xmlns="http://www.w3.org/2000/svg">
<path d="M11.7778 15.6471C11.7778 15.153 11.4556 14.8236 10.9722 14.8236H1.30556C0.822222 14.8236 0.5 15.153 0.5 15.6471V23.8824C0.5 24.3765 0.822222 24.7059 1.30556 24.8706L10.9722 26.0236C11.4556 26.0236 11.7778 25.6942 11.7778 25.3648V15.6471ZM14.1944 14.8236C13.7111 14.8236 13.3889 15.153 13.3889 15.6471V25.3648C13.3889 25.8589 13.7111 26.1883 14.1944 26.353L28.6944 28.0001C29.1778 28.0001 29.5 27.6706 29.5 27.3412V15.8118C29.5 15.3177 29.1778 14.9883 28.6944 14.9883L14.1944 14.8236ZM11.7778 2.80005C11.7778 2.30594 11.4556 1.97653 10.9722 2.14123L1.30556 3.29417C0.822222 3.29417 0.5 3.62358 0.5 4.1177V12.353C0.5 12.8471 0.822222 13.1765 1.30556 13.1765H10.9722C11.4556 13.1765 11.7778 12.8471 11.7778 12.353V2.80005ZM14.1944 1.81182C13.7111 1.81182 13.3889 2.30594 13.3889 2.80005V12.5177C13.3889 13.0118 13.7111 13.3412 14.1944 13.3412H28.6944C29.1778 13.3412 29.5 13.0118 29.5 12.5177V0.988289C29.5 0.494172 29.1778 0.16476 28.6944 0.329466L14.1944 1.81182Z" fill="white"/>
</svg>
