<svg width="39" height="36" viewBox="0 0 39 36" fill="none" xmlns="http://www.w3.org/2000/svg">
<path d="M0.461261 27.5438C0.577716 27.3576 0.759079 27.3443 1.01299 27.5058C6.80708 30.8498 13.1128 32.5313 19.9244 32.5313C24.47 32.5313 28.9544 31.682 33.3854 30.0005L33.8856 29.7782C34.1052 29.6813 34.2579 29.6186 34.3514 29.5711C34.7123 29.4305 34.9738 29.5008 35.1876 29.7782C35.3824 30.0499 35.3327 30.3083 34.9967 30.5382C34.5901 30.8384 34.0422 31.188 33.3931 31.5737C31.4134 32.7498 29.1874 33.6599 26.7265 34.3116C24.3791 34.9398 21.9601 35.2642 19.5293 35.2768C15.923 35.2768 12.5038 34.6498 9.27935 33.3958C6.09829 32.1566 3.16799 30.3563 0.629261 28.0815C0.468898 27.9656 0.390625 27.8478 0.390625 27.7319C0.390625 27.6578 0.42117 27.5913 0.468898 27.5248L0.461261 27.5438ZM10.9212 17.6847C10.9212 16.0887 11.3164 14.7302 12.1029 13.5959C12.8933 12.4711 13.9681 11.618 15.3541 11.0385C16.6255 10.5046 18.1509 10.1265 19.9932 9.89469C20.6155 9.82439 21.6369 9.73129 23.0477 9.61919V9.03019C23.0477 7.56149 22.8874 6.56209 22.5743 6.05859C22.0932 5.37649 21.3334 5.03069 20.2776 5.03069H19.9913C19.2276 5.10479 18.5671 5.33849 18.0077 5.75839C17.4463 6.1873 17.0631 6.80678 16.931 7.49879C16.8374 7.97379 16.6026 8.23409 16.2418 8.30819L12.2232 7.80659C11.8242 7.70969 11.6294 7.52159 11.6294 7.18719C11.6294 7.11689 11.6409 7.04659 11.6638 6.95349C12.0628 4.90529 13.0288 3.37959 14.5656 2.38589C16.1196 1.40929 17.9104 0.839289 19.9645 0.723389H20.8255C23.4582 0.723389 25.5391 1.40929 27.0186 2.76779C27.2382 3.00149 27.452 3.24279 27.6677 3.52399C27.8586 3.78809 28.0266 4.02559 28.1144 4.24029C28.2347 4.45119 28.3569 4.76279 28.4275 5.14279C28.5249 5.54749 28.5955 5.81159 28.6433 5.95219C28.6872 6.11559 28.7406 6.42719 28.7654 6.92879C28.7769 7.42659 28.796 7.70779 28.796 7.80469V16.1761C28.796 16.7727 28.8895 17.3199 29.0575 17.8196C29.2255 18.3136 29.3897 18.6765 29.5577 18.8893L30.3748 19.9552C30.4971 20.1241 30.5704 20.3233 30.5867 20.5309C30.5867 20.7247 30.4932 20.8881 30.3042 21.0249C28.3913 22.6912 27.3394 23.5937 27.1752 23.7381C26.9136 23.9528 26.5776 23.9756 26.1729 23.8122C25.879 23.5658 25.5992 23.3031 25.3348 23.0256L24.8423 22.4727C24.7449 22.353 24.5731 22.1421 24.3344 21.8039L23.8572 21.1142C22.5666 22.5202 21.3028 23.4037 20.0352 23.7609C19.2448 23.9984 18.2903 24.1181 17.1162 24.1181C15.3484 24.1181 13.8688 23.5766 12.7195 22.4784C11.5779 21.384 11.0014 19.8393 11.0014 17.8177L10.9193 17.698L10.9212 17.6847ZM16.8985 16.9874C16.8985 17.8899 17.1219 18.6062 17.5763 19.1515C18.0268 19.693 18.6511 19.9647 19.4185 19.9647C19.4854 19.9647 19.5865 19.9495 19.724 19.9305C19.8729 19.9077 19.9359 19.8925 19.9932 19.8925C20.9706 19.6398 21.7152 19.0166 22.2631 18.0267C22.5277 17.5792 22.7203 17.0932 22.8339 16.5865C22.979 16.0773 23.0248 15.6479 23.0458 15.3211C23.0764 15.0057 23.0764 14.4604 23.0764 13.7251V12.8682C21.7343 12.8682 20.7091 12.9613 20.0142 13.1494C17.9848 13.7251 16.952 15.0057 16.952 17.0045L16.8966 16.9741V16.9874H16.8985ZM31.4954 28.1309C31.5432 28.034 31.6157 27.9561 31.7035 27.8592C32.2782 27.4773 32.8414 27.2094 33.3778 27.0688C34.2176 26.8539 35.0774 26.7259 35.9436 26.6869C36.167 26.6679 36.3904 26.6869 36.6042 26.7344C37.6332 26.8313 38.2708 27.0023 38.4694 27.2531C38.5705 27.4013 38.6106 27.616 38.6106 27.8763V28.1138C38.6106 28.9232 38.3873 29.8732 37.9463 30.9676C37.5053 32.062 36.8905 32.9455 36.1078 33.6314C35.9914 33.7245 35.8883 33.772 35.7947 33.772C35.747 33.772 35.6974 33.772 35.6534 33.753C35.5084 33.6827 35.4816 33.563 35.5484 33.3711C36.4094 31.3742 36.8314 29.9758 36.8314 29.1892C36.8314 28.9479 36.7836 28.7579 36.6901 28.6401C36.4629 28.3798 35.8176 28.2278 34.7428 28.2278C34.2794 28.2347 33.8164 28.2594 33.3549 28.3019C32.7764 28.3798 32.2438 28.4501 31.7627 28.5204C31.6214 28.5204 31.5279 28.4938 31.4764 28.4501C31.4286 28.4026 31.4172 28.376 31.442 28.3285C31.442 28.3019 31.4534 28.281 31.4764 28.2278V28.1347L31.4954 28.1309Z" fill="white"/>
</svg>
