<svg width="36" height="38" viewBox="0 0 36 38" fill="none" xmlns="http://www.w3.org/2000/svg">
<g clip-path="url(#clip0_1780_547)">
<path d="M19.4614 18.1894L25.7233 11.9468L5.49765 0.614392C4.15718 -0.107608 2.90141 -0.208941 1.80023 0.580615L19.4614 18.1894ZM26.7906 25.4981L33.3002 21.8479C34.5708 21.1386 35.2675 20.1337 35.2675 19.0191C35.2675 17.9065 34.5708 16.8995 33.3023 16.1902L27.4089 12.8905L20.7744 19.5025L26.7906 25.4981ZM0.711764 2.11539C0.576235 2.53128 0.5 2.99573 0.5 3.5045V34.5484C0.5 35.3527 0.677882 36.0452 0.999765 36.5962L18.1464 19.5004L0.711764 2.11539ZM19.4614 20.8093L2.41012 37.8101C2.73624 37.9346 3.08776 38.0001 3.45835 38.0001C4.11906 38.0001 4.80729 37.8058 5.50823 37.4174L25.1071 26.446L19.4614 20.8093Z" fill="white"/>
</g>
<defs>
<clipPath id="clip0_1780_547">
<rect width="35" height="38.0001" fill="white" transform="translate(0.5)"/>
</clipPath>
</defs>
</svg>
